<svg width="68" height="68" viewBox="0 0 68 68" fill="none" xmlns="http://www.w3.org/2000/svg">
<path fill-rule="evenodd" clip-rule="evenodd" d="M52.172 18.5C55.392 18.5 58 21.108 58 24.328V54.672C58 57.892 55.392 60.5 52.172 60.5H7.82801C4.60801 60.5 2 57.892 2 54.672V24.328C2 21.108 4.60801 18.5 7.82801 18.5H52.172Z" fill="url(#paint0_linear_4158_1544)"/>
<path d="M51 39.5C50.9999 38.3956 50.039 37.5 48.8537 37.5L37.1463 37.5C35.9609 37.5 35 38.3956 35 39.5C35 40.6046 35.9609 41.5 37.1463 41.5L48.8537 41.5C50.039 41.5 51 40.6046 51 39.5Z" fill="#999999"/>
<g filter="url(#filter0_f_4158_1544)">
<path d="M50 47.5C49.9999 46.3956 48.981 45.5 47.7241 45.5L40.2759 45.5C39.0189 45.5 38 46.3956 38 47.5C38 48.6046 39.0189 49.5 40.2759 49.5L47.7241 49.5C48.9811 49.5 50 48.6046 50 47.5Z" fill="#999999"/>
</g>
<g filter="url(#filter1_f_4158_1544)">
<path fill-rule="evenodd" clip-rule="evenodd" d="M20.9031 52.0932C23.7484 52.087 26.5154 51.8368 29.1421 51.5553C30.3114 51.4305 31.4471 51.1019 32.4931 50.5858C32.5301 50.454 32.5335 50.3156 32.5029 50.1823C31.9352 47.6584 30.4179 45.1783 28.3166 43.5333C26.7272 42.2883 24.8293 41.4579 22.8067 41.1225C20.7841 40.7872 18.7055 40.9583 16.7722 41.6193C14.8389 42.2803 13.1165 43.4088 11.772 44.8953C10.4274 46.3819 9.50625 48.1761 9.09778 50.1041C9.08307 50.1709 9.07649 50.2392 9.0782 50.3074V50.3231V50.3887C9.07972 50.4607 9.09068 50.5321 9.11083 50.6014C10.1477 51.109 11.2721 51.4322 12.4293 51.5553C15.0918 51.8399 17.898 52.0932 20.7824 52.0932H20.9031ZM14.6905 33.8445C14.6905 37.4411 16.8016 39.4646 20.554 39.4646C24.3064 39.4646 26.4175 37.4411 26.4175 33.8445C26.4175 30.2479 24.3064 28.2244 20.554 28.2244C16.8016 28.2244 14.6905 30.2479 14.6905 33.8445Z" fill="#999999"/>
</g>
<path d="M53.5 7.5C60.956 7.5 67 13.5442 67 21C67 28.4559 60.956 34.5 53.5 34.5C46.0442 34.4999 40 28.4558 40 21C40 13.5442 46.0442 7.50013 53.5 7.5Z" fill="#111111"/>
<path d="M58.8938 16.856L52.3687 23.4523L49.1062 20.1959C48.8584 19.9733 48.5693 19.8549 48.2389 19.841C47.9086 19.8271 47.6195 19.9454 47.3717 20.1959C47.1239 20.4464 47 20.7386 47 21.0726C47 21.4066 47.1239 21.6988 47.3717 21.9493L51.5015 26.1243C51.7493 26.3748 52.0383 26.5 52.3687 26.5C52.6991 26.5 52.9882 26.3748 53.236 26.1243L60.6283 18.6511C60.8761 18.4006 61 18.1084 61 17.7744C61 17.4405 60.8761 17.1482 60.6283 16.8977C60.3805 16.6472 60.0914 16.515 59.7611 16.5011C59.4307 16.4872 59.1416 16.6055 58.8938 16.856Z" fill="white"/>
<defs>
<filter id="filter0_f_4158_1544" x="36" y="43.5" width="16" height="8" filterUnits="userSpaceOnUse" color-interpolation-filters="sRGB">
<feFlood flood-opacity="0" result="BackgroundImageFix"/>
<feBlend mode="normal" in="SourceGraphic" in2="BackgroundImageFix" result="shape"/>
<feGaussianBlur stdDeviation="1" result="effect1_foregroundBlur_4158_1544"/>
</filter>
<filter id="filter1_f_4158_1544" x="7.07794" y="26.2244" width="27.4456" height="27.8689" filterUnits="userSpaceOnUse" color-interpolation-filters="sRGB">
<feFlood flood-opacity="0" result="BackgroundImageFix"/>
<feBlend mode="normal" in="SourceGraphic" in2="BackgroundImageFix" result="shape"/>
<feGaussianBlur stdDeviation="1" result="effect1_foregroundBlur_4158_1544"/>
</filter>
<linearGradient id="paint0_linear_4158_1544" x1="58" y1="18.5" x2="20.3695" y2="66.1862" gradientUnits="userSpaceOnUse">
<stop stop-color="white"/>
<stop offset="1" stop-color="#CCCCCC"/>
</linearGradient>
</defs>
</svg>
