<svg width="68" height="68" viewBox="0 0 68 68" fill="none" xmlns="http://www.w3.org/2000/svg">
<path d="M7 15.2922C7 13.6764 7.6184 12.1268 8.71916 10.9843C9.81991 9.84177 11.3129 9.19991 12.8696 9.19991H46.1304C47.6871 9.19991 49.1801 9.84177 50.2808 10.9843C51.3816 12.1268 52 13.6764 52 15.2922V55.9076C52 56.7077 51.8482 57.4999 51.5532 58.239C51.2582 58.9782 50.8259 59.6498 50.2808 60.2155C49.7358 60.7812 49.0888 61.23 48.3766 61.5362C47.6645 61.8423 46.9012 61.9999 46.1304 61.9999H12.8696C11.3129 61.9999 9.81991 61.358 8.71916 60.2155C7.6184 59.073 7 57.5234 7 55.9076V15.2922Z" fill="url(#paint0_linear_4154_915)"/>
<path fill-rule="evenodd" clip-rule="evenodd" d="M22.85 6C22.4757 6 22.1051 6.07242 21.7594 6.21314C21.4136 6.35385 21.0994 6.5601 20.8347 6.8201C20.5701 7.08011 20.3602 7.38877 20.2169 7.72849C20.0737 8.0682 20 8.4323 20 8.8V10.2C20 10.5677 20.0737 10.9318 20.2169 11.2715C20.3602 11.6112 20.5701 11.9199 20.8347 12.1799C21.0994 12.4399 21.4136 12.6462 21.7594 12.7869C22.1051 12.9276 22.4757 13 22.85 13H35.15C35.9059 13 36.6308 12.705 37.1653 12.1799C37.6997 11.6548 38 10.9426 38 10.2V8.8C38 8.05739 37.6997 7.3452 37.1653 6.8201C36.6308 6.295 35.9059 6 35.15 6H22.85Z" fill="#111111"/>
<g filter="url(#filter0_f_4154_915)">
<path d="M37.1522 37.2587L34.0456 40.3368C33.8385 40.542 33.5969 40.6446 33.3207 40.6446C33.0446 40.6446 32.803 40.542 32.5959 40.3368C32.3887 40.1316 32.2852 39.8921 32.2852 39.6185C32.2852 39.3449 32.3887 39.1055 32.5959 38.9003L35.7024 35.8223L32.5959 32.7442C32.3887 32.539 32.2852 32.2996 32.2852 32.026C32.2852 31.7524 32.3887 31.513 32.5959 31.3078C32.803 31.1026 33.0446 31 33.3207 31C33.5969 31 33.8385 31.1026 34.0456 31.3078L37.1522 34.3859L40.2588 31.3078C40.4659 31.1026 40.7075 31 40.9837 31C41.2598 31 41.5014 31.1026 41.7085 31.3078C41.9156 31.513 42.0192 31.7524 42.0192 32.026C42.0192 32.2996 41.9156 32.539 41.7085 32.7442L38.6019 35.8223L41.7085 38.9003C41.9156 39.1055 42.0192 39.3449 42.0192 39.6185C42.0192 39.8921 41.9156 40.1316 41.7085 40.3368C41.5014 40.542 41.2598 40.6446 40.9837 40.6446C40.7075 40.6446 40.4659 40.542 40.2588 40.3368L37.1522 37.2587ZM17.2355 34.5569H27.5908C27.8899 34.5569 28.1373 34.6538 28.3329 34.8476C28.5285 35.0414 28.6263 35.2865 28.6263 35.5829C28.6263 35.8793 28.5285 36.1244 28.3329 36.3182C28.1373 36.512 27.8899 36.6089 27.5908 36.6089H17.2355C16.9363 36.6089 16.6889 36.512 16.4934 36.3182C16.2978 36.1244 16.2 35.8793 16.2 35.5829C16.2 35.2865 16.2978 35.0414 16.4934 34.8476C16.6889 34.6538 16.9363 34.5569 17.2355 34.5569Z" fill="#111111"/>
</g>
<path d="M41.6395 19.4077L36.1857 24.8114L33.4588 22.1437C33.2517 21.9614 33.0101 21.8644 32.7339 21.853C32.4578 21.8417 32.2162 21.9385 32.0091 22.1437C31.8019 22.3489 31.6984 22.5883 31.6984 22.8619C31.6984 23.1355 31.8019 23.3749 32.0091 23.5801L35.4608 27.0002C35.6679 27.2054 35.9096 27.308 36.1857 27.308C36.4618 27.308 36.7035 27.2054 36.9106 27.0002L43.0892 20.8783C43.2963 20.6731 43.3999 20.4337 43.3999 20.1601C43.3999 19.8865 43.2963 19.6471 43.0892 19.4419C42.8821 19.2367 42.6405 19.1284 42.3644 19.117C42.0882 19.1056 41.8466 19.2025 41.6395 19.4077Z" fill="#111111"/>
<path d="M27.5908 23.0671H17.2355C16.9363 23.0671 16.6889 23.1641 16.4934 23.3578C16.2978 23.5517 16.2 23.7968 16.2 24.0931C16.2 24.3896 16.2978 24.6347 16.4934 24.8285C16.6889 25.0223 16.9363 25.1192 17.2355 25.1192H27.5908C27.8899 25.1192 28.1373 25.0223 28.3329 24.8285C28.5285 24.6347 28.6263 24.3896 28.6263 24.0931C28.6263 23.7968 28.5285 23.5517 28.3329 23.3578C28.1373 23.1641 27.8899 23.0671 27.5908 23.0671Z" fill="#111111"/>
<path d="M43 46.2167V51.1667C43 51.6963 43.1732 52.1343 43.5194 52.4806C43.8657 52.8268 44.3037 53 44.8333 53H49.7833C50.0278 53 50.2518 52.9593 50.4555 52.8778C50.6593 52.7963 50.8629 52.6537 51.0666 52.45L63.9 39.5556C64.2666 39.1889 64.5416 38.7713 64.725 38.3028C64.9083 37.8343 65 37.376 65 36.9278C65 36.4796 64.9184 36.0315 64.7555 35.5833C64.5926 35.1351 64.3277 34.7278 63.9611 34.3611L61.7 32.1C61.3333 31.7333 60.9259 31.4583 60.4777 31.275C60.0296 31.0917 59.5611 31 59.0722 31C58.624 31 58.1759 31.0815 57.7277 31.2444C57.2796 31.4074 56.8722 31.6722 56.5055 32.0389L43.55 44.9333C43.3463 45.1371 43.2037 45.3407 43.1222 45.5444C43.0407 45.7482 43 45.9722 43 46.2167Z" fill="#111111"/>
<defs>
<filter id="filter0_f_4154_915" x="14.2" y="29" width="29.8192" height="13.6445" filterUnits="userSpaceOnUse" color-interpolation-filters="sRGB">
<feFlood flood-opacity="0" result="BackgroundImageFix"/>
<feBlend mode="normal" in="SourceGraphic" in2="BackgroundImageFix" result="shape"/>
<feGaussianBlur stdDeviation="1" result="effect1_foregroundBlur_4154_915"/>
</filter>
<linearGradient id="paint0_linear_4154_915" x1="27.794" y1="30.0211" x2="46.3624" y2="54.6978" gradientUnits="userSpaceOnUse">
<stop stop-color="#FFFADB"/>
<stop offset="1" stop-color="white"/>
</linearGradient>
</defs>
</svg>
