<svg width="68" height="68" viewBox="0 0 68 68" fill="none" xmlns="http://www.w3.org/2000/svg">
<g filter="url(#filter0_f_4154_1519)">
<path d="M19.5 16.0723C29.165 16.0723 36.9998 23.9074 37 33.5723C37 43.2373 29.1651 51.0723 19.5 51.0723C9.83502 51.0722 2 43.2373 2 33.5723C2.00017 23.9074 9.83512 16.0723 19.5 16.0723Z" fill="url(#paint0_linear_4154_1519)"/>
</g>
<path d="M34.0723 16.0723C43.7372 16.0723 51.5731 23.9074 51.5732 33.5723C51.5732 43.2373 43.7373 51.0723 34.0723 51.0723C24.4075 51.072 16.5723 43.2372 16.5723 33.5723C16.5724 23.9076 24.4076 16.0725 34.0723 16.0723Z" fill="#F5DB33"/>
<g opacity="0.58" filter="url(#filter1_f_4154_1519)">
<path d="M27.999 19C33.3115 21.5265 37 27.0684 37 33.5C36.9999 39.9314 33.3112 45.4724 27.999 47.999C22.6874 45.4722 19.0001 39.9311 19 33.5C19 27.0687 22.6872 21.5267 27.999 19Z" fill="url(#paint1_linear_4154_1519)"/>
</g>
<path d="M48.6455 16.0723C58.3104 16.0723 66.1453 23.9074 66.1455 33.5723C66.1455 43.2373 58.3105 51.0722 48.6455 51.0723C38.9805 51.0723 31.1455 43.2373 31.1455 33.5723C31.1457 23.9074 38.9806 16.0723 48.6455 16.0723Z" fill="url(#paint2_linear_4154_1519)"/>
<g filter="url(#filter2_f_4154_1519)">
<path d="M41.999 19C47.3115 21.5265 51 27.0684 51 33.5C50.9999 39.9314 47.3112 45.4724 41.999 47.999C36.6874 45.4722 33.0001 39.9311 33 33.5C33 27.0687 36.6872 21.5267 41.999 19Z" fill="#F5DB33"/>
</g>
<path d="M53.7959 36.1197C55.4001 34.6722 55.4017 32.3359 53.7985 30.8873C52.2294 29.4695 50.7051 28.3402 49.4478 27.4987C47.6691 26.3083 45.3602 27.3798 45.1932 29.3308C45.0872 30.569 45 32.0324 45 33.4988C45 34.9684 45.0893 36.4349 45.1978 37.6747C45.3683 39.624 47.6764 40.6901 49.4525 39.501C50.7072 38.6609 52.2287 37.5339 53.7959 36.1197Z" fill="black"/>
<defs>
<filter id="filter0_f_4154_1519" x="1" y="15.0723" width="37" height="37" filterUnits="userSpaceOnUse" color-interpolation-filters="sRGB">
<feFlood flood-opacity="0" result="BackgroundImageFix"/>
<feBlend mode="normal" in="SourceGraphic" in2="BackgroundImageFix" result="shape"/>
<feGaussianBlur stdDeviation="0.5" result="effect1_foregroundBlur_4154_1519"/>
</filter>
<filter id="filter1_f_4154_1519" x="15" y="15" width="26" height="36.999" filterUnits="userSpaceOnUse" color-interpolation-filters="sRGB">
<feFlood flood-opacity="0" result="BackgroundImageFix"/>
<feBlend mode="normal" in="SourceGraphic" in2="BackgroundImageFix" result="shape"/>
<feGaussianBlur stdDeviation="2" result="effect1_foregroundBlur_4154_1519"/>
</filter>
<filter id="filter2_f_4154_1519" x="29" y="15" width="26" height="36.999" filterUnits="userSpaceOnUse" color-interpolation-filters="sRGB">
<feFlood flood-opacity="0" result="BackgroundImageFix"/>
<feBlend mode="normal" in="SourceGraphic" in2="BackgroundImageFix" result="shape"/>
<feGaussianBlur stdDeviation="2" result="effect1_foregroundBlur_4154_1519"/>
</filter>
<linearGradient id="paint0_linear_4154_1519" x1="11.3333" y1="23.8943" x2="30.4711" y2="46.4507" gradientUnits="userSpaceOnUse">
<stop stop-color="#CCCCCC"/>
<stop offset="1" stop-color="white"/>
</linearGradient>
<linearGradient id="paint1_linear_4154_1519" x1="23.8" y1="25.4809" x2="39.1169" y2="36.6866" gradientUnits="userSpaceOnUse">
<stop stop-color="#CCCCCC"/>
<stop offset="1" stop-color="white"/>
</linearGradient>
<linearGradient id="paint2_linear_4154_1519" x1="40.4788" y1="23.8943" x2="59.6166" y2="46.4507" gradientUnits="userSpaceOnUse">
<stop stop-color="white"/>
<stop offset="1" stop-color="#CCCCCC"/>
</linearGradient>
</defs>
</svg>
