<svg width="24" height="24" viewBox="0 0 24 24" fill="none" xmlns="http://www.w3.org/2000/svg">
<path fill-rule="evenodd" clip-rule="evenodd" d="M19 18.75C19 19.9927 17.9554 21 16.6667 21H7.33333C6.04467 21 5 19.9927 5 18.75V5.25C5 4.00736 6.04467 3 7.33333 3H16.6667C17.9554 3 19 4.00736 19 5.25V18.75ZM12 19.0312C12.8054 19.0312 13.4583 18.4017 13.4583 17.625C13.4583 16.8483 12.8054 16.2188 12 16.2188C11.1946 16.2188 10.5417 16.8483 10.5417 17.625C10.5417 18.4017 11.1946 19.0312 12 19.0312Z" fill="black"/>
<rect x="7" y="5" width="10" height="10" rx="1" fill="white"/>
</svg>
