<svg width="24" height="24" viewBox="0 0 24 24" fill="none" xmlns="http://www.w3.org/2000/svg">
<g clip-path="url(#clip0_4154_710)">
<path d="M16.5 13.8C17.6596 13.8001 18.7744 14.2478 19.612 15.0498C20.4496 15.8518 20.9452 16.9462 20.9955 18.1047L21 18.3V19.2C21.0001 19.6541 20.8286 20.0915 20.5199 20.4245C20.2111 20.7575 19.7878 20.9614 19.335 20.9955L19.2 21H4.8C4.34588 21.0001 3.90849 20.8286 3.57551 20.5198C3.24252 20.2111 3.03856 19.7878 3.0045 19.335L3 19.2V18.3C3.00007 17.1404 3.44779 16.0256 4.24979 15.188C5.0518 14.3504 6.14618 13.8548 7.3047 13.8045L7.5 13.8H16.5ZM12 3C13.1935 3 14.3381 3.47411 15.182 4.31802C16.0259 5.16193 16.5 6.30652 16.5 7.5C16.5 8.69347 16.0259 9.83807 15.182 10.682C14.3381 11.5259 13.1935 12 12 12C10.8065 12 9.66193 11.5259 8.81802 10.682C7.97411 9.83807 7.5 8.69347 7.5 7.5C7.5 6.30652 7.97411 5.16193 8.81802 4.31802C9.66193 3.47411 10.8065 3 12 3Z" fill="black"/>
</g>
<defs>
<clipPath id="clip0_4154_710">
<rect width="24" height="24" fill="white"/>
</clipPath>
</defs>
</svg>
