<svg width="232" height="33" viewBox="0 0 232 33" fill="none" xmlns="http://www.w3.org/2000/svg">
<path d="M35.868 17.8039C35.868 9.40241 28.9521 2.59378 20.4182 2.59378C11.8844 2.59378 4.96851 9.40241 4.96851 17.8039C4.96851 26.2055 11.419 32.5419 19.5448 32.993V30.1948C12.9368 29.7296 7.71767 24.3095 7.71767 17.6841C7.71767 11.0588 13.4236 5.13821 20.4612 5.13821C27.4988 5.13821 33.2047 10.7557 33.2047 17.6841C33.2047 24.6126 27.8997 29.8283 21.2129 30.2089V33C29.3817 32.5983 35.8752 25.9447 35.8752 17.8039H35.868Z" fill="black"/>
<path d="M16.9678 9.57152C16.9678 15.2947 20.4973 18.0154 20.4973 18.0154V0.00701904C16.8747 4.99015 16.9678 9.57152 16.9678 9.57152Z" fill="black"/>
<path d="M20.4972 0V18.0083C20.4972 18.0083 24.0267 15.2807 24.0267 9.5645C24.0267 9.5645 24.1198 4.98313 20.4972 0Z" fill="black"/>
<path d="M19.5449 32.9507V21.5113C19.5449 21.5113 19.4518 15.6613 13.08 14.9142H0L3.32907 18.0295H12.1708C12.1708 18.0295 16.0726 18.8118 16.0726 22.8998V32.4291L19.5449 32.9507Z" fill="black"/>
<path d="M21.2131 32.9577V21.5184C21.2131 21.5184 21.3062 15.6683 27.678 14.9142H40.758L37.4289 18.0295H28.5872C28.5872 18.0295 24.6854 18.8118 24.6854 22.8998V32.4291L21.2131 32.9507V32.9577Z" fill="black"/>
<path d="M53.2275 18.8999L47.7578 7.50287H51.6238L53.4495 11.8939C53.9649 13.2261 54.4589 14.4877 55.0245 15.8692H55.1247C55.6903 14.4877 56.2344 13.2261 56.7499 11.8939L58.5755 7.50287H62.3699L56.8787 18.8999V25.476H53.2347V18.8999H53.2275Z" fill="black"/>
<path d="M63.0788 16.426C63.0788 10.583 66.4079 7.1857 71.2332 7.1857C76.0586 7.1857 79.3877 10.6041 79.3877 16.426C79.3877 22.2479 76.0586 25.8143 71.2332 25.8143C66.4079 25.8143 63.0788 22.2479 63.0788 16.426ZM75.672 16.426C75.672 12.5706 73.9466 10.2658 71.2404 10.2658C68.5342 10.2658 66.8088 12.5706 66.8088 16.426C66.8088 20.2814 68.5342 22.706 71.2404 22.706C73.9466 22.706 75.672 20.2532 75.672 16.426Z" fill="black"/>
<path d="M82.8595 17.3986V7.50287H86.5036V17.7158C86.5036 21.4514 87.8352 22.713 89.9544 22.713C92.0735 22.713 93.4982 21.4514 93.4982 17.7158V7.50287H96.9991V17.3986C96.9991 23.3615 94.4146 25.8143 89.9544 25.8143C85.4941 25.8143 82.8595 23.3615 82.8595 17.3986Z" fill="black"/>
<path d="M101.388 7.50287H105.111L110.408 17.0815L112.234 20.9651H112.356C112.184 19.0973 111.89 16.722 111.89 14.6851V7.50287H115.341V25.476H111.647L106.378 15.8692L104.531 12.0138H104.409C104.581 13.952 104.853 16.2075 104.853 18.2726V25.476H101.402V7.50287H101.388Z" fill="black"/>
<path d="M118.928 16.574C118.928 10.6534 122.823 7.1857 127.677 7.1857C130.311 7.1857 132.137 8.29933 133.318 9.49048L131.4 11.7671C130.49 10.9213 129.452 10.2658 127.806 10.2658C124.777 10.2658 122.658 12.5917 122.658 16.4471C122.658 20.3025 124.484 22.706 128.078 22.706C128.937 22.706 129.824 22.4663 130.347 22.0294V18.4911H127.118V15.559H133.597V23.6575C132.366 24.8487 130.225 25.8143 127.684 25.8143C122.73 25.8143 118.935 22.565 118.935 16.574H118.928Z" fill="black"/>
<path d="M137.5 7.50287H143.485C147.523 7.50287 150.63 8.91252 150.63 13.1556C150.63 17.3986 147.501 19.0973 143.585 19.0973H141.144V25.476H137.5V7.50287ZM143.342 16.2568C145.854 16.2568 147.064 15.2137 147.064 13.1556C147.064 11.0975 145.733 10.3645 143.22 10.3645H141.151V16.2568H143.342Z" fill="black"/>
<path d="M153.021 16.426C153.021 10.583 156.35 7.1857 161.175 7.1857C166.001 7.1857 169.33 10.6041 169.33 16.426C169.33 22.2479 166.001 25.8143 161.175 25.8143C156.35 25.8143 153.021 22.2479 153.021 16.426ZM165.607 16.426C165.607 12.5706 163.882 10.2658 161.175 10.2658C158.469 10.2658 156.744 12.5706 156.744 16.426C156.744 20.2814 158.469 22.706 161.175 22.706C163.882 22.706 165.607 20.2532 165.607 16.426Z" fill="black"/>
<path d="M171.985 16.426C171.985 10.583 175.315 7.1857 180.14 7.1857C184.965 7.1857 188.294 10.6041 188.294 16.426C188.294 22.2479 184.965 25.8143 180.14 25.8143C175.315 25.8143 171.985 22.2479 171.985 16.426ZM184.572 16.426C184.572 12.5706 182.846 10.2658 180.14 10.2658C177.434 10.2658 175.708 12.5706 175.708 16.426C175.708 20.2814 177.434 22.706 180.14 22.706C182.846 22.706 184.572 20.2532 184.572 16.426Z" fill="black"/>
<path d="M191.867 7.50287H195.59L200.888 17.0815L202.713 20.9651H202.835C202.663 19.0973 202.37 16.722 202.37 14.6851V7.50287H205.82V25.476H202.126L196.857 15.8692L195.01 12.0138H194.888C195.06 13.952 195.332 16.2075 195.332 18.2726V25.476H191.881V7.50287H191.867Z" fill="black"/>
<path d="M209.407 16.574C209.407 10.6534 213.302 7.1857 218.156 7.1857C220.791 7.1857 222.616 8.29933 223.798 9.49048L221.879 11.7671C220.97 10.9213 219.932 10.2658 218.285 10.2658C215.257 10.2658 213.137 12.5917 213.137 16.4471C213.137 20.3025 214.963 22.706 218.557 22.706C219.416 22.706 220.304 22.4663 220.827 22.0294V18.4911H217.598V15.559H224.077V23.6575C222.845 24.8487 220.705 25.8143 218.163 25.8143C213.209 25.8143 209.415 22.565 209.415 16.574H209.407Z" fill="black"/>
</svg>
