<svg width="172" height="24" viewBox="0 0 172 24" fill="none" xmlns="http://www.w3.org/2000/svg">
<path d="M25.919 12.8656C25.919 6.79441 20.9215 1.87433 14.7547 1.87433C8.58791 1.87433 3.59033 6.79441 3.59033 12.8656C3.59033 18.9367 8.25163 23.5155 14.1235 23.8415V21.8195C9.34841 21.4833 5.57695 17.5666 5.57695 12.779C5.57695 7.99132 9.7002 3.71299 14.7857 3.71299C19.8713 3.71299 23.9945 7.77231 23.9945 12.779C23.9945 17.7856 20.161 21.5546 15.3289 21.8297V23.8466C21.2319 23.5563 25.9242 18.7483 25.9242 12.8656H25.919Z" fill="#F5DB33"/>
<path d="M12.2614 6.91661C12.2614 11.0523 14.8119 13.0183 14.8119 13.0183V0.00506592C12.1941 3.60599 12.2614 6.91661 12.2614 6.91661Z" fill="#F5DB33"/>
<path d="M14.8118 0V13.0133C14.8118 13.0133 17.3623 11.0422 17.3623 6.91154C17.3623 6.91154 17.4295 3.60093 14.8118 0Z" fill="#F5DB33"/>
<path d="M14.1236 23.8109V15.5446C14.1236 15.5446 14.0563 11.3172 9.45193 10.7773H0L2.40566 13.0285H8.7949C8.7949 13.0285 11.6144 13.5939 11.6144 16.548V23.434L14.1236 23.8109Z" fill="#F5DB33"/>
<path d="M15.3291 23.816V15.5497C15.3291 15.5497 15.3964 11.3223 20.0008 10.7773H29.4527L27.047 13.0285H20.6578C20.6578 13.0285 17.8383 13.5939 17.8383 16.548V23.434L15.3291 23.8109V23.816Z" fill="#F5DB33"/>
<path d="M40.4052 13.6575L36.4527 5.42175H39.2464L40.5656 8.59485C40.9381 9.55747 41.2951 10.4692 41.7038 11.4674H41.7762C42.1849 10.4692 42.5781 9.55747 42.9506 8.59485L44.2698 5.42175H47.0118L43.0437 13.6575V18.4095H40.4104V13.6575H40.4052Z" fill="#111111"/>
<path d="M47.524 11.8698C47.524 7.64751 49.9297 5.19257 53.4166 5.19257C56.9035 5.19257 59.3092 7.66279 59.3092 11.8698C59.3092 16.0768 56.9035 18.654 53.4166 18.654C49.9297 18.654 47.524 16.0768 47.524 11.8698ZM56.6241 11.8698C56.6241 9.08381 55.3773 7.41832 53.4217 7.41832C51.4662 7.41832 50.2194 9.08381 50.2194 11.8698C50.2194 14.6558 51.4662 16.4079 53.4217 16.4079C55.3773 16.4079 56.6241 14.6354 56.6241 11.8698Z" fill="#111111"/>
<path d="M61.818 12.5727V5.42175H64.4513V12.8019C64.4513 15.5013 65.4136 16.413 66.9449 16.413C68.4763 16.413 69.5058 15.5013 69.5058 12.8019V5.42175H72.0356V12.5727C72.0356 16.8816 70.168 18.654 66.9449 18.654C63.7219 18.654 61.818 16.8816 61.818 12.5727Z" fill="#111111"/>
<path d="M75.2069 5.42175H77.8972L81.7255 12.3435L83.0448 15.1499H83.1327C83.0085 13.8001 82.7964 12.0837 82.7964 10.6118V5.42175H85.29V18.4095H82.6205L78.8129 11.4674L77.4781 8.68143H77.3901C77.5143 10.0821 77.7109 11.7119 77.7109 13.2042V18.4095H75.2173V5.42175H75.2069Z" fill="#111111"/>
<path d="M87.882 11.9768C87.882 7.69844 90.6964 5.19257 94.204 5.19257C96.1078 5.19257 97.4271 5.9973 98.2807 6.85806L96.8942 8.50318C96.2372 7.89199 95.487 7.41832 94.2971 7.41832C92.1088 7.41832 90.5774 9.09909 90.5774 11.8851C90.5774 14.6711 91.8966 16.4079 94.4937 16.4079C95.1145 16.4079 95.7561 16.2347 96.1337 15.9189V13.3621H93.8005V11.2433H98.4825V17.0955C97.5926 17.9562 96.0458 18.654 94.2092 18.654C90.6291 18.654 87.8872 16.306 87.8872 11.9768H87.882Z" fill="#111111"/>
<path d="M101.302 5.42175H105.627C108.545 5.42175 110.79 6.4404 110.79 9.50654C110.79 12.5727 108.53 13.8001 105.7 13.8001H103.936V18.4095H101.302V5.42175ZM105.524 11.7476C107.34 11.7476 108.214 10.9938 108.214 9.50654C108.214 8.01931 107.252 7.48961 105.436 7.48961H103.941V11.7476H105.524Z" fill="#111111"/>
<path d="M112.518 11.8698C112.518 7.64751 114.924 5.19257 118.411 5.19257C121.898 5.19257 124.303 7.66279 124.303 11.8698C124.303 16.0768 121.898 18.654 118.411 18.654C114.924 18.654 112.518 16.0768 112.518 11.8698ZM121.613 11.8698C121.613 9.08381 120.366 7.41832 118.411 7.41832C116.455 7.41832 115.209 9.08381 115.209 11.8698C115.209 14.6558 116.455 16.4079 118.411 16.4079C120.366 16.4079 121.613 14.6354 121.613 11.8698Z" fill="#111111"/>
<path d="M126.223 11.8698C126.223 7.64751 128.628 5.19257 132.115 5.19257C135.602 5.19257 138.008 7.66279 138.008 11.8698C138.008 16.0768 135.602 18.654 132.115 18.654C128.628 18.654 126.223 16.0768 126.223 11.8698ZM135.318 11.8698C135.318 9.08381 134.071 7.41832 132.115 7.41832C130.16 7.41832 128.913 9.08381 128.913 11.8698C128.913 14.6558 130.16 16.4079 132.115 16.4079C134.071 16.4079 135.318 14.6354 135.318 11.8698Z" fill="#111111"/>
<path d="M140.589 5.42175H143.28L147.108 12.3435L148.427 15.1499H148.515C148.391 13.8001 148.179 12.0837 148.179 10.6118V5.42175H150.673V18.4095H148.003L144.195 11.4674L142.861 8.68143H142.773C142.897 10.0821 143.093 11.7119 143.093 13.2042V18.4095H140.6V5.42175H140.589Z" fill="#111111"/>
<path d="M153.265 11.9768C153.265 7.69844 156.079 5.19257 159.587 5.19257C161.49 5.19257 162.81 5.9973 163.663 6.85806L162.277 8.50318C161.62 7.89199 160.87 7.41832 159.68 7.41832C157.491 7.41832 155.96 9.09909 155.96 11.8851C155.96 14.6711 157.279 16.4079 159.876 16.4079C160.497 16.4079 161.139 16.2347 161.516 15.9189V13.3621H159.183V11.2433H163.865V17.0955C162.975 17.9562 161.428 18.654 159.592 18.654C156.012 18.654 153.27 16.306 153.27 11.9768H153.265Z" fill="#111111"/>
</svg>
