<svg width="68" height="68" viewBox="0 0 68 68" fill="none" xmlns="http://www.w3.org/2000/svg">
<path fill-rule="evenodd" clip-rule="evenodd" d="M46.5927 14.4323C46.9738 13.8569 47.8356 13.9102 48.1435 14.528L51.7304 21.7018C51.8736 21.9885 51.8531 22.3299 51.6767 22.5973C51.2961 23.1738 50.4339 23.1223 50.1249 22.5046L49.4774 21.2067H45.204L44.5556 22.5046C44.3341 22.9477 43.7955 23.1276 43.3524 22.9059C42.9089 22.6845 42.7291 22.1451 42.9511 21.7018L46.538 14.528C46.5543 14.4952 46.5725 14.4628 46.5927 14.4323ZM54.5145 15.8259C54.5145 15.1355 55.2624 14.7043 55.8603 15.0495C56.1374 15.2098 56.3085 15.5057 56.3085 15.8259V17.6188H58.1015C58.7918 17.6188 59.223 18.3667 58.8778 18.9645C58.7176 19.2418 58.4217 19.4128 58.1015 19.4128H56.3085V21.2067C56.3082 21.8968 55.5605 22.3282 54.9628 21.9831C54.6855 21.8229 54.5147 21.5269 54.5145 21.2067V19.4128H52.7216C52.2264 19.4128 51.8243 19.0115 51.8241 18.5163C51.8241 18.021 52.2263 17.6188 52.7216 17.6188H54.5145V15.8259ZM46.1005 19.4128H48.58L47.3407 16.9343L46.1005 19.4128Z" fill="white"/>
<path d="M15.7917 15.5H42.2083C45.4275 15.5 47.0369 15.5 48.335 15.9147C50.7967 16.7009 52.7292 18.5273 53.5611 20.8536C54 22.0804 54 23.6015 54 26.6436V57.3542C54 59.5426 51.2639 60.7038 49.5331 59.2498C48.5161 58.3956 46.9839 58.3956 45.9669 59.2498L44.625 60.3772C42.8428 61.8743 40.1572 61.8743 38.375 60.3772C36.5928 58.8801 33.9072 58.8801 32.125 60.3772C30.3428 61.8743 27.6572 61.8743 25.875 60.3772C24.0928 58.8801 21.4072 58.8801 19.625 60.3772C17.8428 61.8743 15.1572 61.8743 13.375 60.3772L12.0331 59.2498C11.0162 58.3956 9.48381 58.3956 8.46694 59.2498C6.73611 60.7038 4 59.5426 4 57.3542V26.6436C4 23.6015 4 22.0804 4.43875 20.8536C5.27078 18.5273 7.20339 16.7009 9.66497 15.9147C10.9631 15.5 12.5726 15.5 15.7917 15.5Z" fill="url(#paint0_linear_4477_782)"/>
<path d="M15.9195 35.5C14.8594 35.5 14 36.3563 14 37.4125C14 38.4687 14.8594 39.325 15.9195 39.325H17.1991C18.2592 39.325 19.1186 38.4687 19.1186 37.4125C19.1186 36.3563 18.2592 35.5 17.1991 35.5H15.9195Z" fill="#111111"/>
<path d="M15.9195 26.5C14.8594 26.5 14 27.3563 14 28.4125C14 29.4687 14.8594 30.325 15.9195 30.325H17.1991C18.2592 30.325 19.1186 29.4687 19.1186 28.4125C19.1186 27.3563 18.2592 26.5 17.1991 26.5H15.9195Z" fill="#111111"/>
<path d="M24.8772 35.5C23.8172 35.5 22.9578 36.3563 22.9578 37.4125C22.9578 38.4687 23.8172 39.325 24.8772 39.325H41.5126C42.5727 39.325 43.4321 38.4687 43.4321 37.4125C43.4321 36.3563 42.5727 35.5 41.5126 35.5H24.8772Z" fill="#111111"/>
<path d="M24.8772 26.5C23.8172 26.5 22.9578 27.3563 22.9578 28.4125C22.9578 29.4687 23.8172 30.325 24.8772 30.325H41.5126C42.5727 30.325 43.4321 29.4687 43.4321 28.4125C43.4321 27.3563 42.5727 26.5 41.5126 26.5H24.8772Z" fill="#111111"/>
<g filter="url(#filter0_f_4477_782)">
<path d="M15.9197 44.4251C14.8596 44.4251 14.0002 45.2813 14.0002 46.3376C14.0002 47.3938 14.8596 48.25 15.9197 48.25H17.1994C18.2594 48.25 19.1188 47.3938 19.1188 46.3376C19.1188 45.2813 18.2594 44.4251 17.1994 44.4251H15.9197Z" fill="#111111"/>
</g>
<g filter="url(#filter1_f_4477_782)">
<path d="M24.8772 44.425C23.8172 44.425 22.9578 45.2813 22.9578 46.3375C22.9578 47.3937 23.8172 48.25 24.8772 48.25H41.5126C42.5727 48.25 43.4321 47.3937 43.4321 46.3375C43.4321 45.2813 42.5727 44.425 41.5126 44.425H24.8772Z" fill="#111111"/>
</g>
<path d="M50.5 5.5C57.956 5.5 64 11.5442 64 19C64 26.4559 57.956 32.5 50.5 32.5C43.0442 32.4999 37 26.4558 37 19C37 11.5442 43.0442 5.50013 50.5 5.5Z" fill="#111111"/>
<path fill-rule="evenodd" clip-rule="evenodd" d="M46.5927 14.4323C46.9738 13.8569 47.8356 13.9102 48.1435 14.528L51.7304 21.7018C51.8736 21.9885 51.8531 22.3299 51.6767 22.5973C51.2961 23.1738 50.4339 23.1223 50.1249 22.5046L49.4774 21.2067H45.204L44.5556 22.5046C44.3341 22.9477 43.7955 23.1276 43.3524 22.9059C42.9089 22.6845 42.7291 22.1451 42.9511 21.7018L46.538 14.528C46.5543 14.4952 46.5725 14.4628 46.5927 14.4323ZM54.5145 15.8259C54.5145 15.1355 55.2624 14.7043 55.8603 15.0495C56.1374 15.2098 56.3085 15.5057 56.3085 15.8259V17.6188H58.1015C58.7918 17.6188 59.223 18.3667 58.8778 18.9645C58.7176 19.2418 58.4217 19.4128 58.1015 19.4128H56.3085V21.2067C56.3082 21.8968 55.5605 22.3282 54.9628 21.9831C54.6855 21.8229 54.5147 21.5269 54.5145 21.2067V19.4128H52.7216C52.2264 19.4128 51.8243 19.0115 51.8241 18.5163C51.8241 18.021 52.2263 17.6188 52.7216 17.6188H54.5145V15.8259ZM46.1005 19.4128H48.58L47.3407 16.9343L46.1005 19.4128Z" fill="white"/>
<defs>
<filter id="filter0_f_4477_782" x="12.0002" y="42.4251" width="9.11865" height="7.825" filterUnits="userSpaceOnUse" color-interpolation-filters="sRGB">
<feFlood flood-opacity="0" result="BackgroundImageFix"/>
<feBlend mode="normal" in="SourceGraphic" in2="BackgroundImageFix" result="shape"/>
<feGaussianBlur stdDeviation="1" result="effect1_foregroundBlur_4477_782"/>
</filter>
<filter id="filter1_f_4477_782" x="20.9578" y="42.425" width="24.4744" height="7.825" filterUnits="userSpaceOnUse" color-interpolation-filters="sRGB">
<feFlood flood-opacity="0" result="BackgroundImageFix"/>
<feBlend mode="normal" in="SourceGraphic" in2="BackgroundImageFix" result="shape"/>
<feGaussianBlur stdDeviation="1" result="effect1_foregroundBlur_4477_782"/>
</filter>
<linearGradient id="paint0_linear_4477_782" x1="17.3333" y1="26.8978" x2="60.4887" y2="51.2868" gradientUnits="userSpaceOnUse">
<stop offset="0.479016" stop-color="white"/>
<stop offset="1" stop-color="#CCCCCC"/>
</linearGradient>
</defs>
</svg>
