<svg width="68" height="68" viewBox="0 0 68 68" fill="none" xmlns="http://www.w3.org/2000/svg">
<path d="M44.5 8.5C56.374 8.5 66 18.1261 66 30C66 41.874 56.374 51.5 44.5 51.5C32.6261 51.5 23 41.874 23 30C23 18.1261 32.6261 8.50003 44.5 8.5Z" fill="#F5DB33"/>
<path d="M51.907 24.7696C52.5419 25.4402 52.5419 26.5292 51.907 27.1998L44.2815 35.2303C43.6465 35.9009 42.6153 35.9009 41.9803 35.2303L37.8095 30.8331C37.1745 30.1625 37.1745 29.0734 37.8095 28.4028C38.4445 27.7322 39.4757 27.7322 40.1107 28.4028L43.1334 31.5822L49.6108 24.7696C50.2458 24.099 51.2771 24.099 51.912 24.7696H51.907Z" fill="#111111"/>
<path fill-rule="evenodd" clip-rule="evenodd" d="M21.8253 59.5C16.9711 59.489 12.2504 59.0487 7.7691 58.5534C5.77418 58.3338 3.83666 57.7556 2.05196 56.8475C1.98887 56.6156 1.98315 56.3721 2.03526 56.1376C3.00389 51.6965 5.59247 47.3324 9.17751 44.4378C11.889 42.247 15.127 40.7858 18.5777 40.1958C22.0283 39.6058 25.5747 39.9069 28.873 41.07C32.1714 42.2331 35.1099 44.2187 37.4038 46.8344C39.6977 49.4502 41.2693 52.6073 41.9661 56C41.9912 56.1175 42.0025 56.2376 41.9995 56.3577V56.3852V56.5008C41.997 56.6273 41.9783 56.753 41.9439 56.875C40.1749 57.7681 38.2567 58.3368 36.2824 58.5534C31.7399 59.0542 26.9524 59.5 22.0313 59.5H21.8253ZM32.4246 28.3892C32.4246 34.7179 28.8229 38.2785 22.421 38.2785C16.0191 38.2785 12.4174 34.7179 12.4174 28.3892C12.4174 22.0606 16.0191 18.5 22.421 18.5C28.8229 18.5 32.4246 22.0606 32.4246 28.3892Z" fill="url(#paint0_linear_4436_640)"/>
<g filter="url(#filter0_f_4436_640)">
<path d="M25.5742 40.209C26.6922 40.4039 27.796 40.6905 28.873 41.0703C32.1711 42.2333 35.1095 44.2185 37.4033 46.834C38.5391 48.1291 39.4976 49.5576 40.2607 51.0811C33.9066 49.8103 28.5638 45.7394 25.5742 40.209ZM26.0488 18.958C30.1664 20.105 32.4248 23.3791 32.4248 28.3896C32.4247 33.9635 29.6301 37.3881 24.5898 38.126C23.5655 35.6189 23 32.8756 23 30C23 25.9627 24.1132 22.1855 26.0488 18.958Z" fill="#F5DB33"/>
</g>
<defs>
<filter id="filter0_f_4436_640" x="19" y="14.958" width="25.2607" height="40.123" filterUnits="userSpaceOnUse" color-interpolation-filters="sRGB">
<feFlood flood-opacity="0" result="BackgroundImageFix"/>
<feBlend mode="normal" in="SourceGraphic" in2="BackgroundImageFix" result="shape"/>
<feGaussianBlur stdDeviation="2" result="effect1_foregroundBlur_4436_640"/>
</filter>
<linearGradient id="paint0_linear_4436_640" x1="29.5" y1="23.5" x2="19.5267" y2="64.2019" gradientUnits="userSpaceOnUse">
<stop offset="0.479016" stop-color="white"/>
<stop offset="1" stop-color="#CCCCCC"/>
</linearGradient>
</defs>
</svg>
