<svg width="24" height="24" viewBox="0 0 24 24" fill="none" xmlns="http://www.w3.org/2000/svg">
<path fill-rule="evenodd" clip-rule="evenodd" d="M20 4C20.5304 4 21.0391 4.21071 21.4142 4.58579C21.7893 4.96086 22 5.46957 22 6V18C22 18.5304 21.7893 19.0391 21.4142 19.4142C21.0391 19.7893 20.5304 20 20 20H4C3.46957 20 2.96086 19.7893 2.58579 19.4142C2.21071 19.0391 2 18.5304 2 18V6C2 5.46957 2.21071 4.96086 2.58579 4.58579C2.96086 4.21071 3.46957 4 4 4H20ZM18 13H15L14.883 13.007C14.6399 13.0359 14.4159 13.153 14.2534 13.336C14.0909 13.519 14.0011 13.7552 14.0011 14C14.0011 14.2448 14.0909 14.481 14.2534 14.664C14.4159 14.847 14.6399 14.9641 14.883 14.993L15 15H18L18.117 14.993C18.36 14.9641 18.5841 14.847 18.7466 14.664C18.9091 14.481 18.9989 14.2448 18.9989 14C18.9989 13.7552 18.9091 13.519 18.7466 13.336C18.5841 13.153 18.36 13.0359 18.117 13.007L18 13ZM17 9H15C14.7451 9.00028 14.5 9.09788 14.3146 9.27285C14.1293 9.44782 14.0178 9.68695 14.0028 9.9414C13.9879 10.1958 14.0707 10.4464 14.2343 10.6418C14.3979 10.8373 14.6299 10.9629 14.883 10.993L15 11H17C17.2549 10.9997 17.5 10.9021 17.6854 10.7272C17.8707 10.5522 17.9822 10.313 17.9972 10.0586C18.0121 9.80416 17.9293 9.55362 17.7657 9.35817C17.6021 9.16271 17.3701 9.0371 17.117 9.007L17 9Z" fill="black"/>
<path d="M10.25 12.2C10.701 12.2 11.1345 12.3741 11.4602 12.686C11.7859 12.9979 11.9787 13.4235 11.9983 13.874L12 13.95V14.3C12.0001 14.4766 11.9334 14.6467 11.8133 14.7762C11.6932 14.9057 11.5286 14.985 11.3525 14.9982L11.3 15H5.7C5.5234 15.0001 5.3533 14.9334 5.22381 14.8133C5.09431 14.6932 5.015 14.5286 5.00175 14.3525L5 14.3V13.95C5.00003 13.499 5.17414 13.0655 5.48603 12.7398C5.79792 12.4141 6.22351 12.2213 6.67405 12.2017L6.75 12.2H10.25ZM8.5 8C8.96413 8 9.40925 8.18437 9.73744 8.51256C10.0656 8.84075 10.25 9.28587 10.25 9.75C10.25 10.2141 10.0656 10.6592 9.73744 10.9874C9.40925 11.3156 8.96413 11.5 8.5 11.5C8.03587 11.5 7.59075 11.3156 7.26256 10.9874C6.93437 10.6592 6.75 10.2141 6.75 9.75C6.75 9.28587 6.93437 8.84075 7.26256 8.51256C7.59075 8.18437 8.03587 8 8.5 8Z" fill="white"/>
</svg>
